<mxfile host="Electron" modified="2023-04-04T05:55:42.858Z" agent="Mozilla/5.0 (Windows NT 10.0; Win64; x64) AppleWebKit/537.36 (KHTML, like Gecko) draw.io/21.1.2 Chrome/106.0.5249.199 Electron/21.4.3 Safari/537.36" etag="EHAaoLpmpUxRPrc0AxS5" version="21.1.2" type="device">
  <diagram id="C5RBs43oDa-KdzZeNtuy" name="Page-1">
    <mxGraphModel dx="1674" dy="844" grid="1" gridSize="10" guides="1" tooltips="1" connect="1" arrows="1" fold="1" page="1" pageScale="1" pageWidth="827" pageHeight="1169" math="0" shadow="0">
      <root>
        <mxCell id="WIyWlLk6GJQsqaUBKTNV-0" />
        <mxCell id="WIyWlLk6GJQsqaUBKTNV-1" parent="WIyWlLk6GJQsqaUBKTNV-0" />
        <mxCell id="hzerCCfVcDW8n5RPLtf0-5" value="&lt;font style=&quot;font-size: 18px;&quot;&gt;로그인 웹페이지&lt;br&gt;00_login.jsp&lt;/font&gt;" style="rounded=1;whiteSpace=wrap;html=1;fontSize=12;glass=0;strokeWidth=1;shadow=0;" parent="WIyWlLk6GJQsqaUBKTNV-1" vertex="1">
          <mxGeometry x="310" y="160" width="320" height="50" as="geometry" />
        </mxCell>
        <mxCell id="hzerCCfVcDW8n5RPLtf0-10" value="&lt;b&gt;&lt;font style=&quot;font-size: 18px;&quot;&gt;바멘텀 로그인 기능 흐름도&lt;/font&gt;&lt;/b&gt;" style="rounded=0;whiteSpace=wrap;html=1;" parent="WIyWlLk6GJQsqaUBKTNV-1" vertex="1">
          <mxGeometry x="80" y="40" width="680" height="60" as="geometry" />
        </mxCell>
        <mxCell id="lnJPEAX5A74dmJPwMCmh-2" value="&lt;font style=&quot;font-size: 18px;&quot;&gt;FrontController - 서블릿 클래스&lt;br&gt;FrontController.java&lt;/font&gt;" style="rounded=1;whiteSpace=wrap;html=1;fontSize=12;glass=0;strokeWidth=1;shadow=0;" parent="WIyWlLk6GJQsqaUBKTNV-1" vertex="1">
          <mxGeometry x="310" y="270" width="330" height="50" as="geometry" />
        </mxCell>
        <mxCell id="pK67xfKxK2wcU8J90rVl-1" value="&lt;font style=&quot;font-size: 18px;&quot;&gt;Command 구현 클래스&lt;br&gt;LogInService.java&lt;/font&gt;" style="rounded=1;whiteSpace=wrap;html=1;fontSize=12;glass=0;strokeWidth=1;shadow=0;" vertex="1" parent="WIyWlLk6GJQsqaUBKTNV-1">
          <mxGeometry x="310" y="370" width="320" height="50" as="geometry" />
        </mxCell>
        <mxCell id="pK67xfKxK2wcU8J90rVl-2" value="&lt;font style=&quot;font-size: 18px;&quot;&gt;Oracle DB&lt;/font&gt;" style="rounded=1;whiteSpace=wrap;html=1;fontSize=12;glass=0;strokeWidth=1;shadow=0;arcSize=32;" vertex="1" parent="WIyWlLk6GJQsqaUBKTNV-1">
          <mxGeometry x="310" y="790" width="320" height="50" as="geometry" />
        </mxCell>
        <mxCell id="pK67xfKxK2wcU8J90rVl-3" value="&lt;font style=&quot;font-size: 18px;&quot;&gt;DB Access 클래스&lt;br style=&quot;border-color: var(--border-color);&quot;&gt;BmtUserDAO.java&lt;/font&gt;" style="rounded=1;whiteSpace=wrap;html=1;fontSize=12;glass=0;strokeWidth=1;shadow=0;" vertex="1" parent="WIyWlLk6GJQsqaUBKTNV-1">
          <mxGeometry x="310" y="470" width="320" height="50" as="geometry" />
        </mxCell>
        <mxCell id="pK67xfKxK2wcU8J90rVl-4" value="&lt;font style=&quot;font-size: 18px;&quot;&gt;MyBatis 설정 및 접근 클래스&lt;br style=&quot;border-color: var(--border-color);&quot;&gt;SqlSessionManager.java&lt;/font&gt;" style="rounded=1;whiteSpace=wrap;html=1;fontSize=12;glass=0;strokeWidth=1;shadow=0;" vertex="1" parent="WIyWlLk6GJQsqaUBKTNV-1">
          <mxGeometry x="310" y="570" width="320" height="50" as="geometry" />
        </mxCell>
        <mxCell id="pK67xfKxK2wcU8J90rVl-5" value="&lt;font style=&quot;font-size: 18px;&quot;&gt;MyBatis-mapper&lt;br&gt;bmt_Mapper.xml&lt;/font&gt;" style="rounded=1;whiteSpace=wrap;html=1;fontSize=12;glass=0;strokeWidth=1;shadow=0;" vertex="1" parent="WIyWlLk6GJQsqaUBKTNV-1">
          <mxGeometry x="310" y="670" width="320" height="50" as="geometry" />
        </mxCell>
        <mxCell id="pK67xfKxK2wcU8J90rVl-8" value="" style="endArrow=classic;html=1;rounded=0;exitX=0.25;exitY=1;exitDx=0;exitDy=0;entryX=0.25;entryY=0;entryDx=0;entryDy=0;" edge="1" parent="WIyWlLk6GJQsqaUBKTNV-1" source="pK67xfKxK2wcU8J90rVl-1" target="pK67xfKxK2wcU8J90rVl-3">
          <mxGeometry width="50" height="50" relative="1" as="geometry">
            <mxPoint x="630" y="410" as="sourcePoint" />
            <mxPoint x="630" y="470" as="targetPoint" />
          </mxGeometry>
        </mxCell>
        <mxCell id="pK67xfKxK2wcU8J90rVl-9" value="" style="endArrow=classic;html=1;rounded=0;exitX=0.25;exitY=1;exitDx=0;exitDy=0;entryX=0.25;entryY=0;entryDx=0;entryDy=0;" edge="1" parent="WIyWlLk6GJQsqaUBKTNV-1" source="pK67xfKxK2wcU8J90rVl-3" target="pK67xfKxK2wcU8J90rVl-4">
          <mxGeometry width="50" height="50" relative="1" as="geometry">
            <mxPoint x="400" y="540" as="sourcePoint" />
            <mxPoint x="400" y="590" as="targetPoint" />
          </mxGeometry>
        </mxCell>
        <mxCell id="pK67xfKxK2wcU8J90rVl-10" value="" style="endArrow=classic;html=1;rounded=0;exitX=0.25;exitY=1;exitDx=0;exitDy=0;" edge="1" parent="WIyWlLk6GJQsqaUBKTNV-1">
          <mxGeometry width="50" height="50" relative="1" as="geometry">
            <mxPoint x="390" y="620" as="sourcePoint" />
            <mxPoint x="390" y="670" as="targetPoint" />
          </mxGeometry>
        </mxCell>
        <mxCell id="pK67xfKxK2wcU8J90rVl-11" value="" style="endArrow=classic;html=1;rounded=0;entryX=0.25;entryY=0;entryDx=0;entryDy=0;exitX=0.25;exitY=1;exitDx=0;exitDy=0;" edge="1" parent="WIyWlLk6GJQsqaUBKTNV-1" source="pK67xfKxK2wcU8J90rVl-5" target="pK67xfKxK2wcU8J90rVl-2">
          <mxGeometry width="50" height="50" relative="1" as="geometry">
            <mxPoint x="370" y="730" as="sourcePoint" />
            <mxPoint x="440" y="790" as="targetPoint" />
          </mxGeometry>
        </mxCell>
        <mxCell id="pK67xfKxK2wcU8J90rVl-12" value="&lt;div style=&quot;text-align: center;&quot;&gt;HTTP Post 방식 전송&lt;/div&gt;&lt;div style=&quot;text-align: center;&quot;&gt;- LogIn.do 호출&lt;br&gt;-변수 : email, pw&lt;/div&gt;" style="text;whiteSpace=wrap;html=1;" vertex="1" parent="WIyWlLk6GJQsqaUBKTNV-1">
          <mxGeometry x="150" y="210" width="140" height="50" as="geometry" />
        </mxCell>
        <mxCell id="pK67xfKxK2wcU8J90rVl-13" value="&lt;div style=&quot;text-align: center;&quot;&gt;매개변수&lt;/div&gt;&lt;div style=&quot;text-align: center;&quot;&gt;HttpServletRequest,&lt;br&gt;HttpServletResponse&lt;/div&gt;" style="text;whiteSpace=wrap;html=1;" vertex="1" parent="WIyWlLk6GJQsqaUBKTNV-1">
          <mxGeometry x="150" y="320" width="140" height="50" as="geometry" />
        </mxCell>
        <mxCell id="pK67xfKxK2wcU8J90rVl-14" value="&lt;div style=&quot;text-align: center;&quot;&gt;매개변수&lt;/div&gt;&lt;div style=&quot;text-align: center;&quot;&gt;BmtUserDTO&lt;/div&gt;" style="text;whiteSpace=wrap;html=1;" vertex="1" parent="WIyWlLk6GJQsqaUBKTNV-1">
          <mxGeometry x="150" y="520" width="140" height="50" as="geometry" />
        </mxCell>
        <mxCell id="pK67xfKxK2wcU8J90rVl-15" value="&lt;div style=&quot;text-align: center;&quot;&gt;매개변수&lt;/div&gt;&lt;div style=&quot;text-align: center;&quot;&gt;HttpServletRequest,&lt;br&gt;HttpServletResponse&lt;/div&gt;" style="text;whiteSpace=wrap;html=1;" vertex="1" parent="WIyWlLk6GJQsqaUBKTNV-1">
          <mxGeometry x="150" y="420" width="140" height="50" as="geometry" />
        </mxCell>
        <mxCell id="pK67xfKxK2wcU8J90rVl-16" value="&lt;div style=&quot;text-align: center;&quot;&gt;매개변수&lt;/div&gt;&lt;div style=&quot;text-align: center;&quot;&gt;BmtUserDTO&lt;/div&gt;" style="text;whiteSpace=wrap;html=1;" vertex="1" parent="WIyWlLk6GJQsqaUBKTNV-1">
          <mxGeometry x="150" y="610" width="140" height="50" as="geometry" />
        </mxCell>
        <mxCell id="pK67xfKxK2wcU8J90rVl-17" value="&lt;div style=&quot;text-align: center;&quot;&gt;매개변수&lt;/div&gt;&lt;div style=&quot;text-align: center;&quot;&gt;SQL 문 (select 문)&lt;/div&gt;" style="text;whiteSpace=wrap;html=1;" vertex="1" parent="WIyWlLk6GJQsqaUBKTNV-1">
          <mxGeometry x="150" y="720" width="140" height="50" as="geometry" />
        </mxCell>
        <mxCell id="pK67xfKxK2wcU8J90rVl-19" value="" style="endArrow=classic;html=1;rounded=0;entryX=0.75;entryY=1;entryDx=0;entryDy=0;" edge="1" parent="WIyWlLk6GJQsqaUBKTNV-1">
          <mxGeometry width="50" height="50" relative="1" as="geometry">
            <mxPoint x="510" y="670" as="sourcePoint" />
            <mxPoint x="510" y="620" as="targetPoint" />
          </mxGeometry>
        </mxCell>
        <mxCell id="pK67xfKxK2wcU8J90rVl-20" value="" style="endArrow=classic;html=1;rounded=0;entryX=0.75;entryY=1;entryDx=0;entryDy=0;" edge="1" parent="WIyWlLk6GJQsqaUBKTNV-1">
          <mxGeometry width="50" height="50" relative="1" as="geometry">
            <mxPoint x="510" y="570" as="sourcePoint" />
            <mxPoint x="510" y="520" as="targetPoint" />
          </mxGeometry>
        </mxCell>
        <mxCell id="pK67xfKxK2wcU8J90rVl-21" value="" style="endArrow=classic;html=1;rounded=0;entryX=0.75;entryY=1;entryDx=0;entryDy=0;" edge="1" parent="WIyWlLk6GJQsqaUBKTNV-1">
          <mxGeometry width="50" height="50" relative="1" as="geometry">
            <mxPoint x="510" y="470" as="sourcePoint" />
            <mxPoint x="510" y="420" as="targetPoint" />
          </mxGeometry>
        </mxCell>
        <mxCell id="pK67xfKxK2wcU8J90rVl-22" value="" style="endArrow=classic;html=1;rounded=0;entryX=0.75;entryY=1;entryDx=0;entryDy=0;" edge="1" parent="WIyWlLk6GJQsqaUBKTNV-1">
          <mxGeometry width="50" height="50" relative="1" as="geometry">
            <mxPoint x="510" y="370" as="sourcePoint" />
            <mxPoint x="510" y="320" as="targetPoint" />
          </mxGeometry>
        </mxCell>
        <mxCell id="pK67xfKxK2wcU8J90rVl-24" value="" style="endArrow=classic;html=1;rounded=0;exitX=0.25;exitY=1;exitDx=0;exitDy=0;entryX=0.25;entryY=0;entryDx=0;entryDy=0;" edge="1" parent="WIyWlLk6GJQsqaUBKTNV-1">
          <mxGeometry width="50" height="50" relative="1" as="geometry">
            <mxPoint x="390" y="320" as="sourcePoint" />
            <mxPoint x="390" y="370" as="targetPoint" />
          </mxGeometry>
        </mxCell>
        <mxCell id="pK67xfKxK2wcU8J90rVl-25" value="" style="endArrow=classic;html=1;rounded=0;entryX=0.227;entryY=-0.02;entryDx=0;entryDy=0;entryPerimeter=0;" edge="1" parent="WIyWlLk6GJQsqaUBKTNV-1" target="lnJPEAX5A74dmJPwMCmh-2">
          <mxGeometry width="50" height="50" relative="1" as="geometry">
            <mxPoint x="385" y="210" as="sourcePoint" />
            <mxPoint x="390" y="260" as="targetPoint" />
          </mxGeometry>
        </mxCell>
        <mxCell id="pK67xfKxK2wcU8J90rVl-26" value="" style="endArrow=classic;html=1;rounded=0;entryX=0.75;entryY=1;entryDx=0;entryDy=0;exitX=0.603;exitY=-0.08;exitDx=0;exitDy=0;exitPerimeter=0;" edge="1" parent="WIyWlLk6GJQsqaUBKTNV-1" source="lnJPEAX5A74dmJPwMCmh-2">
          <mxGeometry width="50" height="50" relative="1" as="geometry">
            <mxPoint x="510" y="260" as="sourcePoint" />
            <mxPoint x="510" y="210" as="targetPoint" />
          </mxGeometry>
        </mxCell>
        <mxCell id="pK67xfKxK2wcU8J90rVl-27" value="" style="endArrow=classic;html=1;rounded=0;entryX=0.75;entryY=1;entryDx=0;entryDy=0;exitX=0.631;exitY=-0.08;exitDx=0;exitDy=0;exitPerimeter=0;" edge="1" parent="WIyWlLk6GJQsqaUBKTNV-1" source="pK67xfKxK2wcU8J90rVl-2">
          <mxGeometry width="50" height="50" relative="1" as="geometry">
            <mxPoint x="510" y="780" as="sourcePoint" />
            <mxPoint x="510" y="720" as="targetPoint" />
          </mxGeometry>
        </mxCell>
      </root>
    </mxGraphModel>
  </diagram>
</mxfile>
